<svg width="1440" height="459" viewBox="0 0 1440 459" fill="none" xmlns="http://www.w3.org/2000/svg">
<g opacity="0.5">
<path opacity="0.2" d="M17 144C85.4833 144 141 88.4833 141 20C141 -48.4833 85.4833 -104 17 -104C-51.4833 -104 -107 -48.4833 -107 20C-107 88.4833 -51.4833 144 17 144Z" stroke="white" stroke-width="83"/>
<path opacity="0.15" d="M232.5 239C232.5 198.407 199.593 165.5 159 165.5C118.407 165.5 85.5 198.407 85.5 239C85.5 279.593 118.407 312.5 159 312.5C199.593 312.5 232.5 279.593 232.5 239Z" fill="white"/>
<path opacity="0.28" d="M232.5 239C232.5 225.408 228.731 212.083 221.613 200.505C214.494 188.926 204.304 179.548 192.176 173.413C180.048 167.279 166.456 164.627 152.911 165.753C139.366 166.879 126.399 171.738 115.45 179.792C104.501 187.845 95.9996 198.777 90.8905 211.372C85.7814 223.966 84.2647 237.731 86.509 251.136C88.7533 264.541 94.6706 277.062 103.603 287.306C112.536 297.55 124.134 305.116 137.109 309.164L159 239H232.5Z" fill="white"/>
<g opacity="0.89">
<path d="M1178.84 60.5V380.237" stroke="#FFD3E2" stroke-opacity="0.33" stroke-width="0.707454"/>
<path d="M1205.17 60.5V380.237" stroke="#FFD3E2" stroke-opacity="0.33" stroke-width="0.707454"/>
<path d="M1231.51 60.5V380.237" stroke="#FFD3E2" stroke-opacity="0.33" stroke-width="0.707454"/>
<path d="M1257.85 60.5V380.237" stroke="#FFD3E2" stroke-opacity="0.33" stroke-width="0.707454"/>
<path d="M1284.18 60.5V380.237" stroke="#FFD3E2" stroke-opacity="0.33" stroke-width="0.707454"/>
<path d="M1310.52 60.5V380.237" stroke="#FFD3E2" stroke-opacity="0.33" stroke-width="0.707454"/>
<path d="M1336.85 60.5L1336.86 380.237" stroke="#FFD3E2" stroke-opacity="0.33" stroke-width="0.707454"/>
<path d="M1363.19 60.5V380.237" stroke="#FFD3E2" stroke-opacity="0.33" stroke-width="0.707454"/>
<path d="M1389.53 60.5V380.237" stroke="#FFD3E2" stroke-opacity="0.33" stroke-width="0.707454"/>
<path d="M1415.86 60.5V380.237" stroke="#FFD3E2" stroke-opacity="0.33" stroke-width="0.707454"/>
<path opacity="0.6" d="M1546.2 60.854H1152.85V379.884H1546.2V60.854Z" stroke="#FFD3E2" stroke-opacity="0.33" stroke-width="0.707454"/>
<path d="M1152.5 349.865L1543.96 349.864" stroke="#FFD3E2" stroke-opacity="0.33" stroke-width="0.707454"/>
<path d="M1152.5 321.088L1543.96 321.087" stroke="#FFD3E2" stroke-opacity="0.33" stroke-width="0.707454"/>
<path d="M1152.5 292.311L1543.96 292.31" stroke="#FFD3E2" stroke-opacity="0.33" stroke-width="0.707454"/>
<path d="M1152.5 263.534L1543.96 263.533" stroke="#FFD3E2" stroke-opacity="0.33" stroke-width="0.707454"/>
<path d="M1152.5 234.757L1543.96 234.756" stroke="#FFD3E2" stroke-opacity="0.33" stroke-width="0.707454"/>
<path d="M1152.5 205.98H1543.96" stroke="#FFD3E2" stroke-opacity="0.33" stroke-width="0.707454"/>
<path d="M1152.5 177.203H1543.96" stroke="#FFD3E2" stroke-opacity="0.33" stroke-width="0.707454"/>
<path d="M1152.5 148.426H1543.96" stroke="#FFD3E2" stroke-opacity="0.33" stroke-width="0.707454"/>
<path d="M1152.5 119.649H1543.96" stroke="#FFD3E2" stroke-opacity="0.33" stroke-width="0.707454"/>
<path d="M1152.5 90.8731L1543.96 90.8721" stroke="#FFD3E2" stroke-opacity="0.33" stroke-width="0.707454"/>
</g>
<g opacity="0.3">
<path d="M1378.73 264.5H1342.25C1339.76 264.5 1337.74 266.518 1337.74 269.006V453.598C1337.74 456.086 1339.76 458.104 1342.25 458.104H1378.73C1381.22 458.104 1383.24 456.086 1383.24 453.598V269.006C1383.24 266.518 1381.22 264.5 1378.73 264.5Z" fill="white"/>
<path d="M1320.65 303.221H1284.17C1281.68 303.221 1279.66 305.238 1279.66 307.727V453.598C1279.66 456.086 1281.68 458.104 1284.17 458.104H1320.65C1323.14 458.104 1325.16 456.086 1325.16 453.598V307.727C1325.16 305.238 1323.14 303.221 1320.65 303.221Z" fill="white"/>
<path d="M1262.57 380.662H1226.09C1223.6 380.662 1221.58 382.68 1221.58 385.168V453.597C1221.58 456.086 1223.6 458.103 1226.09 458.103H1262.57C1265.06 458.103 1267.08 456.086 1267.08 453.597V385.168C1267.08 382.68 1265.06 380.662 1262.57 380.662Z" fill="white"/>
<path d="M1204.49 361.302H1168.01C1165.52 361.302 1163.5 363.32 1163.5 365.808V453.597C1163.5 456.086 1165.52 458.104 1168.01 458.104H1204.49C1206.98 458.104 1209 456.086 1209 453.597V365.808C1209 363.32 1206.98 361.302 1204.49 361.302Z" fill="white"/>
</g>
</g>
</svg>
